<svg width="33" height="33" viewBox="0 0 33 33" fill="none" xmlns="http://www.w3.org/2000/svg">
<path d="M0 5.71031L6 0L6 27.0078H0L0 5.71031Z" fill="black"/>
<path d="M0 27L33 27L27 33L0 33L0 27Z" fill="black"/>
<mask id="path-3-inside-1_171_76" fill="white">
<path d="M6 0H33V27H6V0Z"/>
</mask>
<path d="M6 0H33V27H6V0Z" fill="white"/>
<path d="M33 0H35V-2H33V0ZM6 2H33V-2H6V2ZM31 0V27H35V0H31Z" fill="black" mask="url(#path-3-inside-1_171_76)"/>
<path d="M20.5977 9.87282H21.6545V16.1115C21.6545 16.6683 21.5522 17.1413 21.3477 17.5305C21.1431 17.9197 20.8548 18.2152 20.4826 18.4169C20.1105 18.6186 19.6715 18.7194 19.1659 18.7194C18.6886 18.7194 18.2639 18.6328 17.8917 18.4595C17.5196 18.2833 17.2269 18.0333 17.0139 17.7095C16.8008 17.3856 16.6943 17.0007 16.6943 16.5546H17.734C17.734 16.8018 17.7951 17.0177 17.9173 17.2024C18.0423 17.3842 18.2127 17.5262 18.4286 17.6285C18.6446 17.7308 18.8903 17.7819 19.1659 17.7819C19.4698 17.7819 19.7284 17.718 19.9414 17.5902C20.1545 17.4623 20.3164 17.2748 20.4272 17.0277C20.5409 16.7777 20.5977 16.4723 20.5977 16.1115V9.87282Z" fill="black"/>
<path d="M18.4023 17.7273H17.3455V11.4886C17.3455 10.9318 17.4478 10.4588 17.6523 10.0696C17.8569 9.6804 18.1452 9.38494 18.5174 9.18324C18.8895 8.98153 19.3285 8.88068 19.8341 8.88068C20.3114 8.88068 20.7361 8.96733 21.1083 9.14062C21.4804 9.31676 21.7731 9.56676 21.9861 9.89062C22.1992 10.2145 22.3057 10.5994 22.3057 11.0455H21.266C21.266 10.7983 21.2049 10.5824 21.0827 10.3977C20.9577 10.2159 20.7873 10.0739 20.5714 9.97159C20.3554 9.86932 20.1097 9.81818 19.8341 9.81818C19.5302 9.81818 19.2716 9.8821 19.0586 10.0099C18.8455 10.1378 18.6836 10.3253 18.5728 10.5724C18.4591 10.8224 18.4023 11.1278 18.4023 11.4886V17.7273Z" fill="black"/>
</svg>
